<svg width="1165" height="929" xmlns="http://www.w3.org/2000/svg"><g><path d="M-78,-59L-107,578L-93,434Z" fill="#ededed" stroke="#ededed"/><path d="M-78,-59L-93,434L-61,185Z" fill="#fafafa" stroke="#fafafa"/><path d="M-78,-59L-61,185L-25,78Z" fill="#fdfdfd" stroke="#fdfdfd"/><path d="M-78,-59L-25,78L94,-44Z" fill="#fbfbfb" stroke="#fbfbfb"/><path d="M-78,-59L94,-44L217,-60Z" fill="#f6f6f6" stroke="#f6f6f6"/><path d="M-78,-59L217,-60L481,-72Z" fill="#ececec" stroke="#ececec"/><path d="M-78,-59L481,-72L972,-115Z" fill="#d6d6d6" stroke="#d6d6d6"/><path d="M94,-44L-25,78L95,30Z" fill="#f7f7f7" stroke="#f7f7f7"/><path d="M94,-44L95,30L217,-60Z" fill="#f1f1f1" stroke="#f1f1f1"/><path d="M217,-60L95,30L265,74Z" fill="#ededed" stroke="#ededed"/><path d="M217,-60L265,74L351,-43Z" fill="#e7e7e7" stroke="#e7e7e7"/><path d="M217,-60L351,-43L481,-72Z" fill="#e0e0e0" stroke="#e0e0e0"/><path d="M351,-43L265,74L358,60Z" fill="#e2e2e2" stroke="#e2e2e2"/><path d="M351,-43L358,60L481,-72Z" fill="#dcdcdc" stroke="#dcdcdc"/><path d="M481,-72L358,60L576,118Z" fill="#d4d4d4" stroke="#d4d4d4"/><path d="M481,-72L576,118L728,-76Z" fill="#c9c9c9" stroke="#c9c9c9"/><path d="M481,-72L728,-76L972,-115Z" fill="#bababa" stroke="#bababa"/><path d="M728,-76L576,118L625,125Z" fill="#c2c2c2" stroke="#c2c2c2"/><path d="M728,-76L625,125L776,51Z" fill="#bbbbbb" stroke="#bbbbbb"/><path d="M728,-76L776,51L792,-16Z" fill="#b5b5b5" stroke="#b5b5b5"/><path d="M728,-76L792,-16L972,-115Z" fill="#aeaeae" stroke="#aeaeae"/><path d="M792,-16L776,51L1027,34Z" fill="#a9a9a9" stroke="#a9a9a9"/><path d="M792,-16L1027,34L972,-115Z" fill="#a2a2a2" stroke="#a2a2a2"/><path d="M972,-115L1027,34L1164,-48Z" fill="#949494" stroke="#949494"/><path d="M972,-115L1164,-48L1311,-68Z" fill="#898989" stroke="#898989"/><path d="M1164,-48L1027,34L1106,77Z" fill="#8e8e8e" stroke="#8e8e8e"/><path d="M1164,-48L1106,77L1335,118Z" fill="#818181" stroke="#818181"/><path d="M1164,-48L1335,118L1311,-68Z" fill="#808080" stroke="#808080"/><path d="M-25,78L-61,185L30,200Z" fill="#f9f9f9" stroke="#f9f9f9"/><path d="M-25,78L30,200L95,30Z" fill="#f6f6f6" stroke="#f6f6f6"/><path d="M95,30L30,200L265,74Z" fill="#efefef" stroke="#efefef"/><path d="M265,74L30,200L229,265Z" fill="#eaeaea" stroke="#eaeaea"/><path d="M265,74L229,265L432,196Z" fill="#e0e0e0" stroke="#e0e0e0"/><path d="M265,74L432,196L358,60Z" fill="#dddddd" stroke="#dddddd"/><path d="M358,60L432,196L576,118Z" fill="#d4d4d4" stroke="#d4d4d4"/><path d="M576,118L432,196L472,241Z" fill="#cecece" stroke="#cecece"/><path d="M576,118L472,241L618,207Z" fill="#c8c8c8" stroke="#c8c8c8"/><path d="M576,118L618,207L625,125Z" fill="#c4c4c4" stroke="#c4c4c4"/><path d="M625,125L618,207L840,225Z" fill="#b9b9b9" stroke="#b9b9b9"/><path d="M625,125L840,225L776,51Z" fill="#b4b4b4" stroke="#b4b4b4"/><path d="M776,51L840,225L961,207Z" fill="#a6a6a6" stroke="#a6a6a6"/><path d="M776,51L961,207L1027,34Z" fill="#a1a1a1" stroke="#a1a1a1"/><path d="M1027,34L961,207L1106,77Z" fill="#949494" stroke="#949494"/><path d="M1106,77L961,207L1185,256Z" fill="#8c8c8c" stroke="#8c8c8c"/><path d="M1106,77L1185,256L1335,118Z" fill="#7e7e7e" stroke="#7e7e7e"/><path d="M1335,118L1185,256L1319,256Z" fill="#7a7a7a" stroke="#7a7a7a"/><path d="M1335,118L1319,256L1319,711Z" fill="#686868" stroke="#686868"/><path d="M-61,185L-93,434L38,345Z" fill="#ececec" stroke="#ececec"/><path d="M-61,185L38,345L30,200Z" fill="#f4f4f4" stroke="#f4f4f4"/><path d="M30,200L38,345L203,318Z" fill="#e7e7e7" stroke="#e7e7e7"/><path d="M30,200L203,318L229,265Z" fill="#e6e6e6" stroke="#e6e6e6"/><path d="M229,265L203,318L353,335Z" fill="#d8d8d8" stroke="#d8d8d8"/><path d="M229,265L353,335L432,196Z" fill="#d7d7d7" stroke="#d7d7d7"/><path d="M432,196L353,335L472,241Z" fill="#d0d0d0" stroke="#d0d0d0"/><path d="M472,241L353,335L562,378Z" fill="#c4c4c4" stroke="#c4c4c4"/><path d="M472,241L562,378L618,207Z" fill="#c2c2c2" stroke="#c2c2c2"/><path d="M618,207L562,378L728,423Z" fill="#b0b0b0" stroke="#b0b0b0"/><path d="M618,207L728,423L819,350Z" fill="#a8a8a8" stroke="#a8a8a8"/><path d="M618,207L819,350L840,225Z" fill="#acacac" stroke="#acacac"/><path d="M840,225L819,350L959,373Z" fill="#979797" stroke="#979797"/><path d="M840,225L959,373L961,207Z" fill="#989898" stroke="#989898"/><path d="M961,207L959,373L1094,370Z" fill="#888888" stroke="#888888"/><path d="M961,207L1094,370L1185,256Z" fill="#848484" stroke="#848484"/><path d="M1185,256L1094,370L1256,417Z" fill="#6f6f6f" stroke="#6f6f6f"/><path d="M1185,256L1256,417L1319,256Z" fill="#6f6f6f" stroke="#6f6f6f"/><path d="M1319,256L1256,417L1285,498Z" fill="#646464" stroke="#646464"/><path d="M1319,256L1285,498L1319,711Z" fill="#565656" stroke="#565656"/><path d="M-93,434L-107,578L71,490Z" fill="#d2d2d2" stroke="#d2d2d2"/><path d="M-93,434L71,490L38,345Z" fill="#dadada" stroke="#dadada"/><path d="M38,345L71,490L203,318Z" fill="#d9d9d9" stroke="#d9d9d9"/><path d="M203,318L71,490L200,500Z" fill="#cecece" stroke="#cecece"/><path d="M203,318L200,500L353,335Z" fill="#cecece" stroke="#cecece"/><path d="M353,335L200,500L344,523Z" fill="#c1c1c1" stroke="#c1c1c1"/><path d="M353,335L344,523L535,469Z" fill="#b8b8b8" stroke="#b8b8b8"/><path d="M353,335L535,469L562,378Z" fill="#b7b7b7" stroke="#b7b7b7"/><path d="M562,378L535,469L623,493Z" fill="#a8a8a8" stroke="#a8a8a8"/><path d="M562,378L623,493L728,423Z" fill="#a3a3a3" stroke="#a3a3a3"/><path d="M728,423L623,493L802,514Z" fill="#939393" stroke="#939393"/><path d="M728,423L802,514L819,350Z" fill="#929292" stroke="#929292"/><path d="M819,350L802,514L917,508Z" fill="#878787" stroke="#878787"/><path d="M819,350L917,508L959,373Z" fill="#878787" stroke="#878787"/><path d="M959,373L917,508L1094,370Z" fill="#7c7c7c" stroke="#7c7c7c"/><path d="M1094,370L917,508L1142,580Z" fill="#6b6b6b" stroke="#6b6b6b"/><path d="M1094,370L1142,580L1256,417Z" fill="#626262" stroke="#626262"/><path d="M1256,417L1142,580L1285,498Z" fill="#545454" stroke="#545454"/><path d="M-107,578L-41,1114L-88,732Z" fill="#9d9d9d" stroke="#9d9d9d"/><path d="M-107,578L-88,732L37,723Z" fill="#b4b4b4" stroke="#b4b4b4"/><path d="M-107,578L37,723L71,490Z" fill="#bebebe" stroke="#bebebe"/><path d="M71,490L37,723L260,645Z" fill="#b1b1b1" stroke="#b1b1b1"/><path d="M71,490L260,645L200,500Z" fill="#bababa" stroke="#bababa"/><path d="M200,500L260,645L344,523Z" fill="#b1b1b1" stroke="#b1b1b1"/><path d="M344,523L260,645L407,656Z" fill="#a3a3a3" stroke="#a3a3a3"/><path d="M344,523L407,656L492,644Z" fill="#9b9b9b" stroke="#9b9b9b"/><path d="M344,523L492,644L535,469Z" fill="#a2a2a2" stroke="#a2a2a2"/><path d="M535,469L492,644L623,493Z" fill="#9b9b9b" stroke="#9b9b9b"/><path d="M623,493L492,644L687,623Z" fill="#8d8d8d" stroke="#8d8d8d"/><path d="M623,493L687,623L802,514Z" fill="#898989" stroke="#898989"/><path d="M802,514L687,623L882,628Z" fill="#777777" stroke="#777777"/><path d="M802,514L882,628L917,508Z" fill="#757575" stroke="#757575"/><path d="M917,508L882,628L985,652Z" fill="#656565" stroke="#656565"/><path d="M917,508L985,652L1142,580Z" fill="#5e5e5e" stroke="#5e5e5e"/><path d="M1142,580L985,652L1091,724Z" fill="#4b4b4b" stroke="#4b4b4b"/><path d="M1142,580L1091,724L1268,778Z" fill="#393939" stroke="#393939"/><path d="M1142,580L1268,778L1319,711Z" fill="#323232" stroke="#323232"/><path d="M1142,580L1319,711L1285,498Z" fill="#434343" stroke="#434343"/><path d="M-88,732L-41,1114L-27,999Z" fill="#858585" stroke="#858585"/><path d="M-88,732L-27,999L-42,850Z" fill="#949494" stroke="#949494"/><path d="M-88,732L-42,850L37,723Z" fill="#a3a3a3" stroke="#a3a3a3"/><path d="M37,723L-42,850L71,767Z" fill="#9d9d9d" stroke="#9d9d9d"/><path d="M37,723L71,767L260,645Z" fill="#a1a1a1" stroke="#a1a1a1"/><path d="M260,645L71,767L279,834Z" fill="#959595" stroke="#959595"/><path d="M260,645L279,834L407,656Z" fill="#939393" stroke="#939393"/><path d="M407,656L279,834L356,875Z" fill="#828282" stroke="#828282"/><path d="M407,656L356,875L478,816Z" fill="#7d7d7d" stroke="#7d7d7d"/><path d="M407,656L478,816L492,644Z" fill="#868686" stroke="#868686"/><path d="M492,644L478,816L628,806Z" fill="#777777" stroke="#777777"/><path d="M492,644L628,806L687,623Z" fill="#7b7b7b" stroke="#7b7b7b"/><path d="M687,623L628,806L862,815Z" fill="#636363" stroke="#636363"/><path d="M687,623L862,815L882,628Z" fill="#636363" stroke="#636363"/><path d="M882,628L862,815L985,652Z" fill="#565656" stroke="#565656"/><path d="M985,652L862,815L979,811Z" fill="#474747" stroke="#474747"/><path d="M985,652L979,811L1091,724Z" fill="#444444" stroke="#444444"/><path d="M1091,724L979,811L1094,836Z" fill="#353535" stroke="#353535"/><path d="M1091,724L1094,836L1268,778Z" fill="#2b2b2b" stroke="#2b2b2b"/><path d="M1319,711L1268,778L1235,980Z" fill="#1b1b1b" stroke="#1b1b1b"/><path d="M1319,711L1235,980L1298,1165Z" fill="#050505" stroke="#050505"/><path d="M-42,850L-27,999L83,929Z" fill="#848484" stroke="#848484"/><path d="M-42,850L83,929L71,767Z" fill="#8f8f8f" stroke="#8f8f8f"/><path d="M71,767L83,929L279,834Z" fill="#898989" stroke="#898989"/><path d="M279,834L83,929L227,1033Z" fill="#757575" stroke="#757575"/><path d="M279,834L227,1033L324,1004Z" fill="#6b6b6b" stroke="#6b6b6b"/><path d="M279,834L324,1004L356,875Z" fill="#717171" stroke="#717171"/><path d="M356,875L324,1004L550,927Z" fill="#636363" stroke="#636363"/><path d="M356,875L550,927L478,816Z" fill="#696969" stroke="#696969"/><path d="M478,816L550,927L628,806Z" fill="#656565" stroke="#656565"/><path d="M628,806L550,927L659,1006Z" fill="#535353" stroke="#535353"/><path d="M628,806L659,1006L795,935Z" fill="#494949" stroke="#494949"/><path d="M628,806L795,935L862,815Z" fill="#4c4c4c" stroke="#4c4c4c"/><path d="M862,815L795,935L940,918Z" fill="#3a3a3a" stroke="#3a3a3a"/><path d="M862,815L940,918L979,811Z" fill="#3a3a3a" stroke="#3a3a3a"/><path d="M979,811L940,918L1094,836Z" fill="#303030" stroke="#303030"/><path d="M1094,836L940,918L1166,937Z" fill="#212121" stroke="#212121"/><path d="M1094,836L1166,937L1268,778Z" fill="#1c1c1c" stroke="#1c1c1c"/><path d="M1268,778L1166,937L1235,980Z" fill="#0e0e0e" stroke="#0e0e0e"/><path d="M-27,999L-41,1114L60,1082Z" fill="#7c7c7c" stroke="#7c7c7c"/><path d="M-27,999L60,1082L83,929Z" fill="#797979" stroke="#797979"/><path d="M83,929L60,1082L227,1033Z" fill="#737373" stroke="#737373"/><path d="M227,1033L60,1082L266,1067Z" fill="#6e6e6e" stroke="#6e6e6e"/><path d="M227,1033L266,1067L324,1004Z" fill="#686868" stroke="#686868"/><path d="M324,1004L266,1067L400,1080Z" fill="#636363" stroke="#636363"/><path d="M324,1004L400,1080L550,927Z" fill="#5a5a5a" stroke="#5a5a5a"/><path d="M550,927L400,1080L555,1139Z" fill="#535353" stroke="#535353"/><path d="M550,927L555,1139L659,1006Z" fill="#4b4b4b" stroke="#4b4b4b"/><path d="M659,1006L555,1139L627,1156Z" fill="#484848" stroke="#484848"/><path d="M659,1006L627,1156L800,1176Z" fill="#3e3e3e" stroke="#3e3e3e"/><path d="M659,1006L800,1176L795,935Z" fill="#383838" stroke="#383838"/><path d="M795,935L800,1176L940,918Z" fill="#2d2d2d" stroke="#2d2d2d"/><path d="M940,918L800,1176L995,1158Z" fill="#252525" stroke="#252525"/><path d="M940,918L995,1158L1166,937Z" fill="#171717" stroke="#171717"/><path d="M1166,937L995,1158L1129,1185Z" fill="#0f0f0f" stroke="#0f0f0f"/><path d="M1166,937L1129,1185L1235,980Z" fill="#060606" stroke="#060606"/><path d="M1235,980L1129,1185L1298,1165Z" fill="#010101" stroke="#010101"/><path d="M-41,1114L800,1176L627,1156Z" fill="#565656" stroke="#565656"/><path d="M-41,1114L627,1156L555,1139Z" fill="#5e5e5e" stroke="#5e5e5e"/><path d="M-41,1114L555,1139L266,1067Z" fill="#696969" stroke="#696969"/><path d="M-41,1114L266,1067L60,1082Z" fill="#757575" stroke="#757575"/><path d="M266,1067L555,1139L400,1080Z" fill="#5c5c5c" stroke="#5c5c5c"/><path d="M800,1176L1129,1185L995,1158Z" fill="#1d1d1d" stroke="#1d1d1d"/></g></svg>